HIERARCHY
ROOT Hips
{
	OFFSET -14.64140 90.27770 -84.91600
	CHANNELS 6 Xposition Yposition Zposition Zrotation Xrotation Yrotation
	JOINT Spine
	{
		OFFSET 0.00000 13.20850 -1.60436
		CHANNELS 3 Zrotation Xrotation Yrotation
		JOINT Spine1
		{
			OFFSET 0.00000 8.61716 0.00000
			CHANNELS 3 Zrotation Xrotation Yrotation
			JOINT Spine2
			{
				OFFSET 0.00000 8.61717 0.00000
				CHANNELS 3 Zrotation Xrotation Yrotation
				JOINT Spine3
				{
					OFFSET 0.00000 8.61717 0.00000
					CHANNELS 3 Zrotation Xrotation Yrotation
					JOINT Neck
					{
						OFFSET 0.00000 11.07920 1.10792
						CHANNELS 3 Zrotation Xrotation Yrotation
						JOINT Neck1
						{
							OFFSET 0.00000 7.08032 0.00000
							CHANNELS 3 Zrotation Xrotation Yrotation
							JOINT Head
							{
								OFFSET 0.00000 7.08031 0.00000
								CHANNELS 3 Zrotation Xrotation Yrotation
								End site
								{
									OFFSET 0.00000 0.00000 0.00000
								}
							}
						}
					}
					JOINT RightShoulder
					{
						OFFSET -0.01000 7.91373 5.19711
						CHANNELS 3 Zrotation Xrotation Yrotation
						JOINT RightArm
						{
							OFFSET -18.41580 0.00000 0.00000
							CHANNELS 3 Zrotation Xrotation Yrotation
							JOINT RightForeArm
							{
								OFFSET -29.11090 0.00000 0.00000
								CHANNELS 3 Zrotation Xrotation Yrotation
								JOINT RightHand
								{
									OFFSET -24.65040 0.00000 0.00000
									CHANNELS 3 Zrotation Xrotation Yrotation
									JOINT RightHandThumb1
									{
										OFFSET -5.35114 -0.85590 3.97906
										CHANNELS 3 Zrotation Xrotation Yrotation
										JOINT RightHandThumb2
										{
											OFFSET -4.52789 0.00000 0.00000
											CHANNELS 3 Zrotation Xrotation Yrotation
											JOINT RightHandThumb3
											{
												OFFSET -2.46976 0.00000 0.00000
												CHANNELS 3 Zrotation Xrotation Yrotation
												End site
												{
													OFFSET 0.00000 0.00000 0.00000
												}
											}
										}
									}
									JOINT RightHandIndex1
									{
										OFFSET -14.26970 0.00000 2.88139
										CHANNELS 3 Zrotation Xrotation Yrotation
										JOINT RightHandIndex2
										{
											OFFSET -5.48836 0.00000 0.00000
											CHANNELS 3 Zrotation Xrotation Yrotation
											JOINT RightHandIndex3
											{
												OFFSET -3.01859 0.00000 0.00000
												CHANNELS 3 Zrotation Xrotation Yrotation
												End site
												{
													OFFSET 0.00000 0.00000 0.00000
												}
											}
										}
									}
									JOINT RightHandMiddle1
									{
										OFFSET -14.26970 0.00000 -0.09147
										CHANNELS 3 Zrotation Xrotation Yrotation
										JOINT RightHandMiddle2
										{
											OFFSET -6.17441 0.00000 0.00000
											CHANNELS 3 Zrotation Xrotation Yrotation
											JOINT RightHandMiddle3
											{
												OFFSET -3.56743 0.00000 0.00000
												CHANNELS 3 Zrotation Xrotation Yrotation
												End site
												{
													OFFSET 0.00000 0.00000 0.00000
												}
											}
										}
									}
									JOINT RightHandRing1
									{
										OFFSET -12.69180 0.00000 -3.06433
										CHANNELS 3 Zrotation Xrotation Yrotation
										JOINT RightHandRing2
										{
											OFFSET -5.62556 0.00000 0.00000
											CHANNELS 3 Zrotation Xrotation Yrotation
											JOINT RightHandRing3
											{
												OFFSET -3.56744 0.00000 0.00000
												CHANNELS 3 Zrotation Xrotation Yrotation
												End site
												{
													OFFSET 0.00000 0.00000 0.00000
												}
											}
										}
									}
									JOINT RightHandPinky1
									{
										OFFSET -11.11390 0.00000 -6.03719
										CHANNELS 3 Zrotation Xrotation Yrotation
										JOINT RightHandPinky2
										{
											OFFSET -4.52789 0.00000 0.00000
											CHANNELS 3 Zrotation Xrotation Yrotation
											JOINT RightHandPinky3
											{
												OFFSET -2.46976 0.00000 0.00000
												CHANNELS 3 Zrotation Xrotation Yrotation
												End site
												{
													OFFSET 0.00000 0.00000 0.00000
												}
											}
										}
									}
								}
							}
						}
					}
					JOINT LeftShoulder
					{
						OFFSET 0.01000 7.91373 5.19711
						CHANNELS 3 Zrotation Xrotation Yrotation
						JOINT LeftArm
						{
							OFFSET 18.41580 0.00000 0.00000
							CHANNELS 3 Zrotation Xrotation Yrotation
							JOINT LeftForeArm
							{
								OFFSET 29.11090 0.00000 0.00000
								CHANNELS 3 Zrotation Xrotation Yrotation
								JOINT LeftHand
								{
									OFFSET 24.65040 0.00000 0.00000
									CHANNELS 3 Zrotation Xrotation Yrotation
									JOINT LeftHandThumb1
									{
										OFFSET 5.35114 -0.85590 3.97906
										CHANNELS 3 Zrotation Xrotation Yrotation
										JOINT LeftHandThumb2
										{
											OFFSET 4.52789 0.00000 0.00000
											CHANNELS 3 Zrotation Xrotation Yrotation
											JOINT LeftHandThumb3
											{
												OFFSET 2.46977 0.00000 0.00000
												CHANNELS 3 Zrotation Xrotation Yrotation
												End site
												{
													OFFSET 0.00000 0.00000 0.00000
												}
											}
										}
									}
									JOINT LeftHandIndex1
									{
										OFFSET 14.26970 0.00000 2.88139
										CHANNELS 3 Zrotation Xrotation Yrotation
										JOINT LeftHandIndex2
										{
											OFFSET 5.48836 0.00000 0.00000
											CHANNELS 3 Zrotation Xrotation Yrotation
											JOINT LeftHandIndex3
											{
												OFFSET 3.01859 0.00000 0.00000
												CHANNELS 3 Zrotation Xrotation Yrotation
												End site
												{
													OFFSET 0.00000 0.00000 0.00000
												}
											}
										}
									}
									JOINT LeftHandMiddle1
									{
										OFFSET 14.26970 0.00000 -0.09147
										CHANNELS 3 Zrotation Xrotation Yrotation
										JOINT LeftHandMiddle2
										{
											OFFSET 6.17440 0.00000 0.00000
											CHANNELS 3 Zrotation Xrotation Yrotation
											JOINT LeftHandMiddle3
											{
												OFFSET 3.56744 0.00000 0.00000
												CHANNELS 3 Zrotation Xrotation Yrotation
												End site
												{
													OFFSET 0.00000 0.00000 0.00000
												}
											}
										}
									}
									JOINT LeftHandRing1
									{
										OFFSET 12.69180 0.00000 -3.06433
										CHANNELS 3 Zrotation Xrotation Yrotation
										JOINT LeftHandRing2
										{
											OFFSET 5.62556 0.00000 0.00000
											CHANNELS 3 Zrotation Xrotation Yrotation
											JOINT LeftHandRing3
											{
												OFFSET 3.56744 0.00000 0.00000
												CHANNELS 3 Zrotation Xrotation Yrotation
												End site
												{
													OFFSET 0.00000 0.00000 0.00000
												}
											}
										}
									}
									JOINT LeftHandPinky1
									{
										OFFSET 11.11390 0.00000 -6.03719
										CHANNELS 3 Zrotation Xrotation Yrotation
										JOINT LeftHandPinky2
										{
											OFFSET 4.52789 0.00000 0.00000
											CHANNELS 3 Zrotation Xrotation Yrotation
											JOINT LeftHandPinky3
											{
												OFFSET 2.46976 0.00000 0.00000
												CHANNELS 3 Zrotation Xrotation Yrotation
												End site
												{
													OFFSET 0.00000 0.00000 0.00000
												}
											}
										}
									}
								}
							}
						}
					}
					JOINT pCube4
					{
						OFFSET 0.00000 10.91090 1.10792
						CHANNELS 3 Zrotation Xrotation Yrotation
						End site
						{
							OFFSET 0.00000 0.00000 0.00000
						}
					}
				}
			}
		}
	}
	JOINT RightUpLeg
	{
		OFFSET -9.98441 0.00000 0.00000
		CHANNELS 3 Zrotation Xrotation Yrotation
		JOINT RightLeg
		{
			OFFSET 0.00000 -42.11790 0.00000
			CHANNELS 3 Zrotation Xrotation Yrotation
			JOINT RightFoot
			{
				OFFSET 0.00000 -45.00020 -0.00001
				CHANNELS 3 Zrotation Xrotation Yrotation
				JOINT RightForeFoot
				{
					OFFSET 0.00000 -3.74820 0.00000
					CHANNELS 3 Zrotation Xrotation Yrotation
					JOINT RightToeBase
					{
						OFFSET 0.00000 0.06325 14.43120
						CHANNELS 3 Zrotation Xrotation Yrotation
						End site
						{
							OFFSET 0.00000 0.00000 0.00000
						}
					}
				}
			}
		}
	}
	JOINT LeftUpLeg
	{
		OFFSET 9.98441 0.00000 0.00000
		CHANNELS 3 Zrotation Xrotation Yrotation
		JOINT LeftLeg
		{
			OFFSET 0.00000 -42.11800 0.00000
			CHANNELS 3 Zrotation Xrotation Yrotation
			JOINT LeftFoot
			{
				OFFSET 0.00000 -45.00070 0.00000
				CHANNELS 3 Zrotation Xrotation Yrotation
				JOINT LeftForeFoot
				{
					OFFSET 0.00000 -3.74824 0.00000
					CHANNELS 3 Zrotation Xrotation Yrotation
					JOINT LeftToeBase
					{
						OFFSET 0.00000 0.06325 14.43110
						CHANNELS 3 Zrotation Xrotation Yrotation
						End site
						{
							OFFSET 0.00000 0.00000 0.00000
						}
					}
				}
			}
		}
	}
}
MOTION
Frames: 4
Frame Time: 0.050000
-0.004207683917983794 -0.010232778461942127 -0.008669852692637977 0.010972982756830594 -0.0477342198773156 -0.04154941923869776 -0.6809682992363362 2.614821162952516 -1.1985167449751881 -0.896328064619055 3.67140899507463 0.3801399050059943 -1.1511160160701406 -1.1682162714355173 -0.47808383820528666 0.5018157208111739 0.2147301961274084 -0.7284338835471323 0.9210893277325505 11.266030524946185 -3.348221938490389 0.14167078545927791 -1.628022997852805 -9.30516889593458 1.2959316724054593 -18.21841060644853 -0.8394916556565987 -6.758613896030395 2.442909096370982 -14.895150005338811 78.70300217111995 -1.5484099524820558 15.18865844213727 35.088799400012746 -1.0041039715697384 97.6425951818889 3.460650521828674 -0.027058065074939946 -1.6809135444506549 4.4848733946152635 -0.14093497379060907 -1.5893142065243753 0.020395881142738156 0.0418814415448766 -56.21949322578017 0.02983681771812447 -0.010090607710102084 -56.27475567530998 -38.754304835799054 0.034430479081804265 0.03560533965450996 -0.015305875148141199 0.02259167221781345 0.0032062755466396573 0.030145149813105492 -0.0014272824776815347 -0.0062765274784202935 -36.6675365740818 -0.03569158763523061 -0.007855806518635652 0.022565843628692104 0.04682592492120814 0.022562610194144888 -0.022335897543112358 0.011255609428102394 -0.04283955788044382 -19.807881353879115 0.013188375493965938 0.04302161861102 -0.014290877284947 -0.007508451959146655 -0.013170582775949435 0.030451388067570268 -0.039893579053887955 0.025491657913823237 24.03339697310707 -0.019695588729508374 0.03866082760751967 28.879110867707524 0.011521414643486322 -0.040561994372911116 28.87338172017906 -0.0039628985966662375 0.026382919044039596 5.298768388527579 1.4086326012213788 11.914455714747326 -71.4363565535571 28.18526547869184 -7.425995081879431 -18.11046766561748 -3.3599383653398425 -85.05814847513459 -9.169179158126829 -4.61881150835028 3.515821661363085 -0.46910910042732035 0.10258726624739861 -8.116925102725316 -0.0017582265747700086 -0.04951828334560021 44.52720192694896 -0.019785383521355174 0.04207962289461359 44.57118702476151 12.495009588739059 0.0015938571176954061 -0.024611569526018385 -0.0320465133324609 -0.0058644796650214265 0.03455442199003126 -0.039468972628942146 0.020087483062418705 0.020128648857435136 11.150812504756994 0.026001071042815675 -0.01354942030503265 -0.019583437416144284 0.0178756562241837 -0.02722519634394294 0.03074379636444559 -0.018821266338687415 0.017707554988510753 4.749458598115421 0.012498905677930801 0.017633748604508583 0.025549174203293994 -0.04621593706102217 -0.025976296962786475 -0.032442444828967916 0.04813130765854969 0.012434709338444093 -5.6467808569916365 0.019585507035443487 -0.01780537594038708 -6.738299816764993 -0.0014692075812831559 -0.02911278873770056 -6.710025392835922 -0.033717198984576584 0.0051234694144493345 -0.009779540140730254 0.022593263369856245 -0.004089972903049415 8.088344651404022 3.506222437442226 -19.234499524273495 -0.02004280259184419 10.37910191130762 -0.0014014199751025726 -5.6157556557558195 -15.644839002915147 3.2392532762745834 -0.010446239466860947 0.00026084821730817546 0.02986235322082534 -0.017813424709765886 4.699924270052727 -0.03036595429434354 12.500591848214297 -8.196741519382439 6.850255417157932 0.017453696668219186 46.37318747880155 0.022101264307303355 -4.301299313822942 -14.787511967207825 -3.8515886907974717 0.03525102063578154 0.00680633597518169 -0.030560300860877666 -0.03385108096527177 -10.763169023562996 -0.004633889775860942 
-0.012155552057395672 0.01620724369205499 -0.011451950611911104 0.030352209101827444 -0.0058811096129303495 0.0475597052033823 -0.9553541421531857 2.4702040999775114 -1.179114805718614 -0.9651779625339229 3.683939199072448 0.4009024026356305 -1.1218103511125321 -1.137188111733985 -0.43835895567218963 0.4154786626845579 0.12928327496425424 -0.7174726070919706 0.9719503820994355 11.262320684847527 -3.21623763474303 0.16916557600201634 -1.6254993929355022 -9.113856499673085 1.3123319328462202 -18.17191409031762 -0.777888405965883 -6.680451112687157 2.489764992757047 -14.862992515636428 77.78559992340307 -1.1526546898551382 15.57582233092804 30.533702169175804 -0.7685282429747728 99.61812887832832 3.0242775625041904 0.044384824112063584 -1.3360820347498568 4.548703774483327 -0.125765306940763 -1.5964181740609014 -0.027120119457313095 -0.02009138545594951 -56.204158422264534 0.02623888236790934 0.007098550088967768 -56.23533550630552 -38.77805601381689 0.03742041198646563 0.02959634603265661 -0.011811177945101685 0.04984211782453038 -0.04279244122636593 0.03944499404644947 0.023990195939756976 0.003538964156838862 -36.675755065844854 -0.02088731409171886 0.0017238652463684814 -0.017090447749809896 0.02280812954543831 -0.002038741280798569 0.0220054398331035 0.006402171183531058 0.02427532016565694 -19.794744375715464 -0.017117859176225197 0.02672551936543276 -0.037605104776849405 0.04118590190520616 -0.037369767447483916 0.04430857543758442 -0.0019191986680014148 0.043461815829716546 24.092913978887672 0.046907433672875226 -0.01207668921177222 28.88871729009856 0.04754763219271249 -0.042443991053891086 28.883647446477614 0.022094193723362476 -0.03764367550957307 5.223711674113875 1.3714828560297811 11.945229730082813 -71.09902677954369 29.129810433265494 -7.591330532677431 -13.252510269419146 -3.6093160907313573 -85.44973775968167 -9.331914842430875 -4.416642702065541 3.4419968260604215 -0.5038664391830124 0.034136685533241146 -8.080389299071324 0.024331365953617495 -0.02020592831756841 44.563070312296205 -0.003434495274906795 -0.013551285617945321 44.58315805185588 12.424422718083141 0.0006400645528867268 0.027550063798177826 -0.02587703647250237 0.015156566831646848 -0.0268068774989756 0.002839379242669123 0.01865242837865406 -0.0441356104285983 11.124649598570453 -0.026107687547395463 -0.03434323779374977 -0.035433019917495145 0.013997392104289474 -0.024983679797607503 -0.007245503208948057 -0.009777873346391052 0.04985200043752481 4.751957499993889 0.016146948470040907 0.007625376353303891 -0.017394852616012948 -0.036424995069335976 0.00021703212104919755 0.012214848988825171 0.04889338250138117 -0.004729048305494193 -5.561562666804706 -0.00112977626466446 0.014262741099333728 -6.754488335063551 -0.013026642056766563 0.011800791571891931 -6.757360412370095 -0.015332268717823703 -0.044363703491001244 -0.0032615041129988127 -0.005938635461168542 0.04758857328632312 8.067897861854338 3.504811783984781 -19.19486979261221 0.013031574463620648 10.373602580927738 0.05395960583514982 -5.650558627644702 -15.611672793353488 3.2153760003290652 -0.0017516927859610612 0.01766111345869578 0.00013514441370692431 -0.04355998628160615 4.648197890233278 -0.037213945810918775 12.448923590973045 -8.25837306002682 6.929213433140687 -0.0042919391411768435 46.33927631142807 -0.012475437573566962 -4.360869571880395 -14.72126119823787 -3.8567480506378655 0.011174221490199351 -0.004045944212625869 0.0012779598307762943 -0.013540023023586546 -10.707868945826489 -0.018497015873774305 
-0.02108511128394913 0.007242893035577711 0.04825166653738416 -0.02034416334923538 0.02954172798978996 -0.009764795781404323 -1.0650681581337873 2.2845815891307475 -1.2397723386232078 -0.9522930386847676 3.6041566715046542 0.3506158269981817 -1.1661181422534317 -1.2275023261230427 -0.401023286390955 0.3483495622637526 0.12220049827679477 -0.6989930780932683 0.9086393884987016 11.177504583289709 -3.135486983824129 0.21238812357392575 -1.590613304326803 -8.905584272776382 1.3011729546168962 -18.083423645267434 -0.8145203307650719 -6.649948352579856 2.5273033357315557 -14.741170591971757 77.17234881415587 -0.5314373447248723 15.956181004666284 27.21685622195545 -0.8200420808817449 101.0844276147216 2.785742876995683 0.06511640059186122 -1.0507327059885516 4.534866602775258 -0.14018932790875246 -1.6003100145567084 0.00479841796674047 0.006538734246662868 -56.21458134200558 0.009187686936915932 -0.03320142630064094 -56.269303606564776 -38.769453600427774 0.02485762857960529 0.045567872392629084 -0.004730190217465782 -0.008043128892600917 0.04708808307536561 0.034795141565603316 0.044422754806978215 0.014834270037399783 -36.676178283504186 -0.041210939951377146 -0.004414045520346323 0.0029607963751460084 -0.011398685349448925 -0.00225180402901221 -0.002039379055097254 -0.006838143618726606 0.014673656912300137 -19.807803661492336 0.000382041262423162 -0.0003485302150089602 -0.012989542536501666 -0.049786107669754304 -0.01319767186590825 -0.0008209798792514717 -0.032592057962998515 -0.012757911327152646 24.096222123245877 -0.023820252184649945 0.009910690069115923 28.854863239360377 0.009311976077740952 -0.020488760820325507 28.851458283460136 0.01432625928551192 0.04763561145330102 5.156625447347716 1.4122633552905526 11.84494084935737 -70.97417595536122 29.895918237491514 -7.859823802393885 -10.14609665260416 -3.80954731331196 -86.27691924942165 -9.473487174664374 -4.2911431314127295 3.20016645604716 -0.49549467049768825 0.05130942754778799 -8.13977234969393 -0.04810494688217994 0.003017606215063745 44.55811084383748 -0.047134155548956495 -0.00924274723963511 44.53301863175047 12.504880263381196 0.03139209132474747 -0.021710345412230134 -0.044214819235266684 -0.016401557504652775 -0.023193254720064106 -0.048571453962113174 -0.019030395919159736 0.006548072965885014 11.143891423856388 0.00015145518689891138 0.04053876364606215 0.006631084590679545 -0.009369215805827455 0.012118468759612849 -0.013552290028621992 -0.001830816752470547 -0.038055538960819785 4.7672349256837805 -0.0355477995914749 -0.047542706077804794 -0.02082777482507901 -0.0028194163301932347 0.022090564177577182 -0.0026237342931819904 -0.017346922541879136 -0.044540055132230624 -5.566898589603806 0.01639939041422987 -0.013564164422434381 -6.704359636312371 -0.01575083933316159 0.03507520560821011 -6.6925476094962955 0.025257885607806632 0.028647602198909126 0.022034666054826624 -0.02377738890706502 -0.010152332160207002 8.021856833758982 3.530259346009444 -19.240379663901308 -0.010713157987964624 10.428778042756623 0.019587499132135994 -5.613576175284955 -15.669878311602668 3.1481208167932935 -0.004548417035912849 -0.0022299368893896002 0.02499391334492933 -0.021829697662146867 4.7429748247776375 -0.016516297950544958 12.470642289826573 -8.24416721764836 6.913861947277999 -0.00265549036278594 46.40386637031798 0.008864258086756546 -4.339871027954952 -14.798095734425896 -3.8830551550784698 -0.03362173266301614 -0.017989662349601913 -0.01791122209516283 -0.03759207293206117 -10.70576459833928 -0.016323298293846048 
-0.04364254975393328 0.04981644422839602 -0.01633341576762348 -0.02028082980731233 0.0055130814277155275 0.015809539822569593 -1.2053957621241769 2.1594002429363575 -1.2093144436039098 -0.9018384653088419 3.6409876955970133 0.42957730011670703 -1.166623758900611 -1.2122117457515436 -0.413016100703049 0.22252160248132094 0.05614479360384493 -0.7272320498733909 0.9042515572238459 11.208237805302256 -3.0935415606266923 0.20188073641627058 -1.5386491648426717 -8.629351094534437 1.2903659563478624 -17.982681673283963 -0.7675850188815371 -6.653525512577187 2.5291640769955266 -14.655531795416964 76.90553780389587 -0.30675990742716364 16.812983836973306 25.198015872040123 -0.7250372564980255 101.97258553081979 2.6814405560490893 0.08009621549639587 -0.8571558207330825 4.511792777916961 -0.17419262251534165 -1.543660252229426 -0.012424118929597276 0.0249278745044076 -56.25388804533033 -0.02072856367069407 -0.045469179591211 -56.1896384172454 -38.73565995159098 0.015519494740500185 0.022615835457712678 0.03301454314278628 0.023130916888232926 0.04778719562952078 -0.023325087396264713 -0.027887662387134356 -0.037326448835452816 -36.66797942019693 0.008226505046716749 -0.01424196258969774 -0.0037785170685953303 -0.03450871229972175 0.03047805878193244 0.049588403988917444 -0.03014788139313821 -0.009076667074359356 -19.755231029837123 -0.03541675193378861 0.0005022192055312756 0.04146325935988819 0.015657539785669874 0.033657780413620365 0.03686218966647018 -0.013041981717291495 -5.38607208651107e-05 24.02672442517598 -0.02271256696888235 0.037853840111001895 28.873260522043694 0.00818084762894155 0.008308697018225859 28.855812736626905 -0.02523278767154983 -0.03662364111792662 5.182511473263037 1.3702712714835763 11.883712415825249 -70.83720621400968 30.311532935520905 -8.21981860284679 -8.71535362503332 -3.843118215441362 -87.54336350726457 -9.463049066014674 -4.114660767930896 3.0882949690071944 -0.5138117844822719 0.043999882845051914 -8.123389230139026 -0.04947987914545094 0.04714158750256538 44.59571711618799 -0.010529542191131901 -0.02021035940805898 44.517596642354334 12.443126891978334 0.010022358051174756 -0.048375210623491816 -0.007302196973244063 0.035504996617546254 -0.041810909494012026 0.035617759712094015 0.000587381721768043 0.03524031221543084 11.12807000010322 0.049126193771286984 -0.006923335395338274 -0.03720816566675652 -0.002505834214792019 -0.04596387615485748 0.025994040311706008 0.008037354516918312 -0.016852264890811902 4.817169206289694 -0.0012582492400314274 -0.04216556480374105 0.019101694638446763 -0.02865890921303582 0.020355560320762307 -0.004472835952072927 -0.008514459753805288 0.033064599686882724 -5.648913959223996 -0.01855201749515558 0.00699457488056273 -6.742069682387426 0.039975970393825194 0.014916805230185952 -6.704318375556061 -0.008787923986946534 0.004836346237608964 0.04280284849614051 0.02273356136372848 -0.0015830222123413753 8.011515201086173 3.4830756921382853 -19.232099437596187 0.013958836551490302 10.39709443758195 0.027014793508602697 -5.591746852306536 -15.675745090456221 3.1512520947135028 0.002719758382610284 -0.027434614014427955 -0.013216822205011212 0.01640786769093934 4.746650394426635 -0.002394044549112871 12.41043600211619 -8.261236119056155 6.902566494410273 0.017821494122360504 46.4284522054245 0.043809593291026676 -4.290611684198795 -14.747522582906441 -3.8447369453358866 0.03449319020854683 -0.04968763906185736 -0.014526504876890146 0.007239395503655275 -10.793766730898662 -0.0209680139103125 
